<?xml version="1.0" encoding="UTF-8"?>
<svg width="96px" height="53px" viewBox="0 0 96 53" version="1.1" xmlns="http://www.w3.org/2000/svg" xmlns:xlink="http://www.w3.org/1999/xlink">
    <title>icon_360_DESKTOP</title>
    <g id="6_VISAO_360_DESKTOP" stroke="none" stroke-width="1" fill="none" fill-rule="evenodd">
        <g id="2.0.0_Visao_360_Instrucoes_Inicio" transform="translate(-672.000000, -525.000000)" fill="#FFFFFF">
            <g id="overlay_360_INSTRUCTIONS" transform="translate(-1.000000, 90.000000)">
                <g id="icon_360_DESKTOP" transform="translate(673.000000, 435.000000)">
                    <path d="M15.981249,16.1724138 L15.981249,21.4310815 C8.95764273,23.5147045 5.29315252,25.9952081 5.29315252,27.7811707 C5.29315252,31.3530959 19.340365,37.7031852 46.1115018,38.1000658 L46.1115018,38.1000658 L41.1237234,33.2382787 C40.1058095,32.2460772 40.1058095,30.5593348 41.1237234,29.5671333 C42.1416374,28.5749319 43.8720911,28.5749319 44.890005,29.5671333 L44.890005,29.5671333 L54.4583961,38.8938269 C54.9673531,39.3899277 55.2727273,39.9852485 55.2727273,40.6797895 C55.2727273,41.3743305 54.9673531,41.9696514 54.4583961,42.4657521 L54.4583961,42.4657521 L44.890005,51.7924457 C44.381048,52.2885465 43.7702997,52.5862069 43.0577599,52.5862069 C42.4470116,52.5862069 41.7344718,52.2885465 41.2255148,51.7924457 C40.2076009,50.8002443 40.2076009,49.1135018 41.2255148,48.1213004 L41.2255148,48.1213004 L46.2132932,43.1602932 C22.9030638,42.8626327 0,37.603965 0,27.7811707 C0,22.6217232 6.41285786,18.7521376 15.981249,16.1724138 L15.981249,16.1724138 Z M80.599025,16.1724138 C89.8389104,18.6718778 96.0981877,22.5710416 95.9988341,27.8699052 C95.9988341,37.667804 75.6313446,41.2670322 66.8872337,42.3667963 C65.4972767,42.5667534 64.2056798,41.4669893 64.0069726,40.0672894 C63.9066255,38.5676111 64.9001615,37.2678898 66.2921056,37.1679112 C83.380926,35.0683615 90.9308066,30.4693478 90.9308066,27.8699052 C90.9308066,26.0702912 87.4534303,23.5708272 80.599025,21.4712774 L80.599025,21.4712774 Z" id="Combined-Shape"></path>
                    <path d="M31.1917526,20 C35.8020619,20 38,18.4716733 38,13.9920949 C38,10.8036891 37.4103093,9.67061924 35.5340206,9.06455863 C37.0082474,8.48484848 37.4639175,7.19367589 37.4639175,4.71673254 C37.4639175,0.974967062 35.4,5.68434189e-14 31.5402062,5.68434189e-14 C28.9134021,5.68434189e-14 26.7690722,0.606060606 25.2680412,1.44927536 L26.9835052,4.69038208 C28.1628866,4.1370224 29.4762887,3.7944664 30.8969072,3.7944664 C32.6927835,3.7944664 33.4701031,4.16337286 33.4701031,5.77075099 C33.4701031,7.19367589 32.9876289,7.85243742 30.8701031,7.85243742 L28.0020619,7.85243742 L28.0020619,11.1462451 L30.8164948,11.1462451 C33.4164948,11.1462451 33.9525773,11.831357 33.9525773,13.5704875 C33.9525773,15.7312253 33.3092784,16.3636364 30.9237113,16.3636364 C29.2886598,16.3636364 28.1628866,15.9683794 26.8226804,15.256917 L25,18.5507246 C26.7154639,19.4993412 28.4041237,20 31.1917526,20 Z M47.1713748,20 C52.4180791,20 54,17.6533333 54,12.9066667 C54,8.96 53.1035782,6.24 48.5423729,6.24 C46.1958569,6.24 44.7721281,6.74666667 44.0602637,7.6 C44.2448211,5.12 44.8512241,3.68 48.9378531,3.68 L51.4425612,3.68 L51.4425612,5.68434189e-14 L49.1487759,5.68434189e-14 C40.8484369,5.68434189e-14 40.0160539,3.632904 40.0002362,11.0022106 L40,11.2266667 C40,16.6666667 40.7645951,20 47.1713748,20 Z M47.1764706,17 C44.5429864,17 44,15.8648649 44,13.2972973 C44,10.8648649 45.2760181,10 47.2307692,10 C49.2669683,10 50,11 50,13.4324324 C50,15.8378378 49.4027149,17 47.1764706,17 Z M63.038674,20 C69.2007366,20 70,16.3899868 70,10.0131752 C70,3.92621871 69.2265193,5.68434189e-14 63.038674,5.68434189e-14 C56.8616575,5.68434189e-14 56.0165293,3.7706087 56.0002444,9.82889217 L56,10.0131752 C56,16.284585 56.8508287,20 63.038674,20 Z M63.0258621,16 C60.4655172,16 60,14.2494715 60,9.93657505 C60,5.64904863 60.4655172,4 63.0258621,4 C65.5344828,4 66,5.64904863 66,9.93657505 C66,14.2494715 65.5603448,16 63.0258621,16 Z" id="360" fill-rule="nonzero"></path>
                </g>
            </g>
        </g>
    </g>
</svg>