<?xml version="1.0" encoding="UTF-8"?>
<svg width="58px" height="65px" viewBox="0 0 58 65" version="1.1" xmlns="http://www.w3.org/2000/svg" xmlns:xlink="http://www.w3.org/1999/xlink">
    <title>icon_SWIPE_360</title>
    <g id="4_VISAO_360_MOBILE_MOBILE_LANDSCAPE_&amp;_TABLET" stroke="none" stroke-width="1" fill="none" fill-rule="evenodd">
        <g id="2.0.0_Visao_360_Instrucoes_Inicio" transform="translate(-304.000000, -189.000000)" fill="#FFFFFF">
            <g id="overlay_360_INSTRUCTIONS" transform="translate(-1.000000, 64.000000)">
                <g id="icon_SWIPE_360" transform="translate(305.000000, 125.000000)">
                    <path d="M7.43301805,27.8226601 C7.66155536,28.3735961 12.2323015,41.9302463 17.7171968,47.5270936 C18.0219132,47.8415764 18.4028088,48 18.8598834,48 C19.2407789,48 19.6978535,47.8415764 20.0025699,47.5270936 C20.6120027,46.8957635 20.6120027,45.7931034 20.0025699,45.1625616 C15.1271074,40.1182266 10.7087194,27.270936 10.4801821,26.7192118 C10.0992866,25.3785222 10.1754657,24.1182266 10.6325403,23.8021675 C10.9372568,23.5665025 11.3181523,23.4876847 11.6990478,23.6453202 C12.0799433,23.7241379 12.4608388,24.0394089 12.6893761,24.5123153 L17.4886595,33.1026601 C17.869555,33.7339901 18.555167,34.0484729 19.316958,33.8908374 C20.0025699,33.7339901 20.5358236,33.0246305 20.5358236,32.3144828 L20.5358236,4.96551724 C20.5358236,4.01970443 21.2976146,3.23152709 22.2117639,3.23152709 C23.1259131,3.23152709 23.8877041,4.01970443 23.8877041,4.96551724 L23.8877041,23.9605911 C23.8877041,24.9064039 24.573316,25.6157635 25.4874653,25.6157635 C26.4016145,25.6157635 27.0872264,24.9064039 27.0872264,23.9605911 L27.0872264,15.9203941 C27.0872264,14.9753695 27.8490174,14.1871921 28.7631666,14.1871921 C29.6773159,14.1871921 30.4391069,14.9753695 30.4391069,15.9203941 L30.4391069,24.5903448 C30.4391069,25.5369458 31.1247188,26.2463054 32.038868,26.2463054 C32.9530173,26.2463054 33.6386292,25.5369458 33.6386292,24.5903448 L33.6386292,18.2068966 C33.6386292,17.2610837 34.4004202,16.4729064 35.3145694,16.4729064 C36.2287186,16.4729064 36.9905097,17.2610837 36.9905097,18.2068966 L36.9905097,20.4137931 L36.9905097,20.729064 L36.9905097,21.2807882 L36.9905097,24.5903448 C36.9905097,25.5369458 37.6761216,26.2463054 38.5902708,26.2463054 C39.50442,26.2463054 40.190032,25.5369458 40.190032,24.5903448 L40.190032,21.2807882 C40.190032,20.3349754 40.951823,19.546798 41.8659722,19.546798 C42.9324796,19.546798 43.3895542,20.8866995 43.6180915,21.5172414 C43.6942707,23.1724138 44.4560617,38.1477833 41.713614,45.0829557 C41.4088976,45.9507389 41.7897931,46.8957635 42.6277632,47.2118227 C42.8563005,47.2898522 43.0086587,47.3694581 43.237196,47.3694581 C43.8466289,47.3694581 44.4560617,46.9753695 44.684599,46.3448276 C47.8079422,38.3834483 46.8937929,21.8317241 46.8176138,21.1231527 L46.8176138,20.8866995 C46.208181,17.9704433 44.3037035,16.1576355 41.9421513,16.1576355 C41.2565394,16.1576355 40.5709275,16.3144828 39.9614946,16.5517241 C39.3520618,14.5024631 37.4475843,13.0837438 35.3145694,13.0837438 C34.4765993,13.0837438 33.7909874,13.320197 33.1053755,13.635468 C32.2674053,11.9795074 30.6676442,10.8768473 28.7631666,10.8768473 C28.1537338,10.8768473 27.6204801,10.955665 27.0872264,11.19133 L27.0872264,5.04433498 C27.0872264,2.28571429 24.8780324,0 22.2117639,0 C19.5454953,0 17.3363013,2.28571429 17.3363013,5.04433498 L17.3363013,26.2463054 L15.584182,23.0935961 C14.8985701,21.8317241 13.9082417,21.0435468 12.613197,20.6494581 C11.3943314,20.3349754 10.0992866,20.5714286 9.0327792,21.2807882 C7.05212254,22.2258128 6.51886883,24.8275862 7.43301805,27.8226601 C7.43301805,27.7430542 7.43301805,27.8226601 7.43301805,27.8226601" id="Fill-1"></path>
                    <path d="M9.65533791,43 L9.65533791,46.1771117 C5.41190915,47.4359673 3.19794631,48.9346049 3.19794631,50.013624 C3.19794631,52.1716621 11.6848038,56.0081744 27.8590323,56.2479564 L27.8590323,56.2479564 L24.8455829,53.3106267 C24.2305932,52.7111717 24.2305932,51.6920981 24.8455829,51.0926431 C25.4605726,50.493188 26.506055,50.493188 27.1210447,51.0926431 L27.1210447,51.0926431 L32.9019477,56.7275204 C33.2094425,57.027248 33.3939394,57.386921 33.3939394,57.8065395 C33.3939394,58.226158 33.2094425,58.5858311 32.9019477,58.8855586 L32.9019477,58.8855586 L27.1210447,64.520436 C26.8135499,64.8201635 26.4445561,65 26.0140633,65 C25.6450695,65 25.2145767,64.8201635 24.9070819,64.520436 C24.2920922,63.9209809 24.2920922,62.9019074 24.9070819,62.3024523 L24.9070819,62.3024523 L27.9205313,59.3051771 C13.8372677,59.1253406 0,55.9482289 0,50.013624 C0,46.8964578 3.87443496,44.5585831 9.65533791,43 L9.65533791,43 Z M48.6952443,43 C54.2776751,44.5100928 58.0593217,46.8658376 57.9992956,50.0672344 C57.9992956,55.9867983 45.6939374,58.1613319 40.411037,58.8257728 C39.5712714,58.9465802 38.7909316,58.2821394 38.6708793,57.4364874 C38.6102529,56.5304317 39.2105143,55.7451834 40.0514805,55.6847797 C50.3759761,54.4163017 54.9373623,51.6377309 54.9373623,50.0672344 C54.9373623,48.9799676 52.8364475,47.4698748 48.6952443,46.2013968 L48.6952443,46.2013968 Z" id="Combined-Shape"></path>
                </g>
            </g>
        </g>
    </g>
</svg>