<?xml version="1.0" encoding="UTF-8"?>
<svg width="64px" height="64px" viewBox="0 0 64 64" version="1.1" xmlns="http://www.w3.org/2000/svg" xmlns:xlink="http://www.w3.org/1999/xlink">
    <title>703FB67C-B3FB-4990-A2C9-3FA134A8B43D</title>
    <defs>
        <path d="M1.70710678,0.292893219 L12,10.585 L22.2928932,0.292893219 C22.6533772,-0.0675907428 23.2206082,-0.0953202783 23.6128994,0.209704612 L23.7071068,0.292893219 C24.0976311,0.683417511 24.0976311,1.31658249 23.7071068,1.70710678 L23.7071068,1.70710678 L13.415,12 L23.7071068,22.2928932 C24.0976311,22.6834175 24.0976311,23.3165825 23.7071068,23.7071068 C23.3165825,24.0976311 22.6834175,24.0976311 22.2928932,23.7071068 L12,13.415 L1.70710678,23.7071068 C1.34662282,24.0675907 0.779391764,24.0953203 0.387100557,23.7902954 L0.292893219,23.7071068 C-0.0976310729,23.3165825 -0.0976310729,22.6834175 0.292893219,22.2928932 L0.292893219,22.2928932 L10.585,12 L0.292893219,1.70710678 C-0.0976310729,1.31658249 -0.0976310729,0.683417511 0.292893219,0.292893219 C0.683417511,-0.0976310729 1.31658249,-0.0976310729 1.70710678,0.292893219 Z" id="path-1"></path>
    </defs>
    <g id="Paginas-Internas" stroke="none" stroke-width="1" fill="none" fill-rule="evenodd">
        <g id="1.3.0.0_360_visao_interativa_hover_ampliar_imagem" transform="translate(-1376.000000, 0.000000)">
            <g id="button_CLOSE" transform="translate(1376.000000, 0.000000)">
                <rect id="Rectangle" fill="#FFFFFF" x="0" y="0" width="64" height="64"></rect>
                <g id="Icon" transform="translate(20.000000, 18.500000)">
                    <mask id="mask-2" fill="white">
                        <use xlink:href="#path-1"></use>
                    </mask>
                    <use id="Icon-Fill-Color-" fill="#00095B" xlink:href="#path-1"></use>
                </g>
            </g>
        </g>
    </g>
</svg>