<?xml version="1.0" encoding="UTF-8"?>
<svg width="32px" height="32px" viewBox="0 0 32 32" version="1.1" xmlns="http://www.w3.org/2000/svg" xmlns:xlink="http://www.w3.org/1999/xlink">
    <title>Group 3</title>
    <g id="Paginas-Internas" stroke="none" stroke-width="1" fill="none" fill-rule="evenodd">
        <g id="1.3.2_360_posicao_centro" transform="translate(-196.000000, -499.000000)">
            <g id="Group-3" transform="translate(196.000000, 499.000000)">
                <path d="M16,0.5 C20.2802068,0.5 24.1552068,2.23489659 26.9601551,5.03984489 C29.7651034,7.84479319 31.5,11.7197932 31.5,16 C31.5,20.2802068 29.7651034,24.1552068 26.9601551,26.9601551 C24.1552068,29.7651034 20.2802068,31.5 16,31.5 C11.7197932,31.5 7.84479319,29.7651034 5.03984489,26.9601551 C2.23489659,24.1552068 0.5,20.2802068 0.5,16 C0.5,11.7197932 2.23489659,7.84479319 5.03984489,5.03984489 C7.84479319,2.23489659 11.7197932,0.5 16,0.5 Z" id="Rectangle-Copy-64" stroke="#FFFFFF" fill-opacity="0.8" fill="#000000"></path>
                <g id="Icon" transform="translate(8.000000, 8.000000)" fill="#FFFFFF">
                    <polygon id="IncreaseAddPrimary" points="7.27286055 0 7.27286055 7.27206084 0 7.27206084 0 8.72647301 7.27286055 8.72647301 7.27286055 16 8.72713945 16 8.72713945 8.72647301 16 8.72647301 16 7.27206084 8.72713945 7.27206084 8.72713945 0"></polygon>
                </g>
            </g>
        </g>
    </g>
</svg>