<svg xmlns="http://www.w3.org/2000/svg" xmlns:xlink="http://www.w3.org/1999/xlink" width="40" height="40" viewBox="0 0 40 40"><defs><style>.cls-1,.cls-4{fill:#fff;}.cls-1,.cls-2,.cls-3{fill-rule:evenodd;}.cls-3{fill:#00095b;}.cls-5{mask:url(#mask);}</style><mask id="mask" x="0" y="0" width="40" height="40" maskUnits="userSpaceOnUse"><g id="mask-2"><path id="path-1" class="cls-1" d="M20,0A20,20,0,1,1,0,20,20,20,0,0,1,20,0Z"/></g></mask></defs><g id="Camada_2" data-name="Camada 2"><g id="Camada_1-2" data-name="Camada 1"><g id="Paginas-Internas"><g id="_1.3.1_360_posicao_esquerda" data-name="1.3.1_360_posicao_esquerda"><g id="Buttons-_-FAB-_-Building-Blocks-_-FAB-Copy-3" data-name="Buttons-/-FAB-/-Building-Blocks-/-FAB-Copy-3"><g id="Buttons-_-FAB-_-Dependencies-_-Default" data-name="Buttons-/-FAB-/-Dependencies-/-Default"><g id="Rectangle-Copy-64"><path id="path-1-2" data-name="path-1" class="cls-2" d="M20,0A20,20,0,1,1,0,20,20,20,0,0,1,20,0Z"/><path class="cls-3" d="M20,.5A19.5,19.5,0,1,1,6.2114,6.2114,19.439,19.439,0,0,1,20,.5Z"/><path class="cls-4" d="M20,40A20,20,0,0,1,5.8579,5.8579,20,20,0,0,1,34.1426,34.1426,19.8726,19.8726,0,0,1,20,40ZM20,1A19,19,0,0,0,6.5649,33.4355,19,19,0,0,0,33.4355,6.5649,18.8781,18.8781,0,0,0,20,1Z"/></g><g class="cls-5"><path id="Fill-1" class="cls-1" d="M33.5433,22.7561h1.4489V18.5987H33.5433Zm-28.5355,0H6.52V18.5987H5.0078ZM27.18,18.1742a2.1389,2.1389,0,1,1-2.1385,2.1388A2.1389,2.1389,0,0,1,27.18,18.1742Zm-14.3608,0a2.1389,2.1389,0,1,1-2.1389,2.1388A2.1389,2.1389,0,0,1,12.82,18.1742ZM27.18,17.1664A3.1467,3.1467,0,1,0,30.327,20.313,3.1467,3.1467,0,0,0,27.18,17.1664Zm-14.3608,0a3.1467,3.1467,0,1,0,3.1467,3.1466A3.1466,3.1466,0,0,0,12.82,17.1664ZM8.4659,15.0083H31.5447a.9666.9666,0,0,1,.9908.9421v2.0207c0,.0333-.0107.0674-.0107.1028s.0107.0691.0107.1024v5.0018c0,.0333-.0107.0674-.0107.1028s.0107.0692.0107.1029v.919a.9767.9767,0,0,1-.8162.9553l-6.432,1.1012a.9739.9739,0,0,1-.9724-.4172l-1.5992-2.3966a3.2564,3.2564,0,0,0-5.4186,0l-1.5979,2.3961a.97.97,0,0,1-.97.4177L8.3174,25.2581a.9536.9536,0,0,1-.79-.9549V15.95a.9224.9224,0,0,1,.9388-.9421Zm0-1.0079A1.93,1.93,0,0,0,6.52,15.95v1.6405H4.53a.51.51,0,0,0-.53.483v5.207a.51.51,0,0,0,.53.483H6.52v.5389A1.9584,1.9584,0,0,0,8.1472,26.251l6.4192,1.1016a1.9337,1.9337,0,0,0,.3294.0283,1.9751,1.9751,0,0,0,1.6431-.88l1.597-2.3966a2.2474,2.2474,0,0,1,3.74,0l1.5974,2.3966a1.9788,1.9788,0,0,0,1.9784.852L31.89,26.251a1.9806,1.9806,0,0,0,1.6533-1.9482v-.5389H35.47a.51.51,0,0,0,.53-.483v-5.207a.51.51,0,0,0-.53-.483H33.5428V15.95A1.975,1.975,0,0,0,31.5447,14Z"/></g></g></g></g></g></g></g></svg>