<svg xmlns="http://www.w3.org/2000/svg" viewBox="0 0 20.9 21.2"><g id="Camada_2" data-name="Camada 2"><g id="Camada_1-2" data-name="Camada 1"><g id="_1.3.2_360_posicao_centro" data-name=" 1.3.2 360 posicao centro"><g id="Buttons-_-FAB-_-Building-Blocks-_-FAB-Copy-2" data-name="Buttons- -FAB- -Building-Blocks- -FAB-Copy-2"><g id="Group"><g id="Icon"><path id="ZoomIn" d="M8.3,0a8.4,8.4,0,0,1,8.3,8.3,9.9,9.9,0,0,1-1.9,5.5h0L20.8,20a.9.9,0,0,1-.2,1.1.6.6,0,0,1-.8,0h0l-6.2-6.3a9.4,9.4,0,0,1-5.3,2A8.3,8.3,0,0,1,0,8.4,8.2,8.2,0,0,1,8.3,0Zm0,1.6A6.6,6.6,0,0,0,1.7,8.3a6.7,6.7,0,0,0,6.5,6.9h.1A6.8,6.8,0,0,0,15,8.3h0A6.6,6.6,0,0,0,8.4,1.6Zm.8,3V7.7h3V9.1h-3v3.1H7.6V9.1h-3V7.7h3V4.6Z" fill="#f4f4f4" fill-rule="evenodd"/></g></g></g></g></g></g></svg>
