<svg xmlns="http://www.w3.org/2000/svg" viewBox="0 0 21.9 21.9"><g id="Camada_2" data-name="Camada 2"><g id="Camada_1-2" data-name="Camada 1"><g id="Paginas-Internas"><g id="_1.3.2_360_posicao_centro" data-name="1.3.2_360_posicao_centro"><g id="Buttons-_-FAB-_-Building-Blocks-_-FAB" data-name="Buttons-/-FAB-/-Building-Blocks-/-FAB"><g id="Group-2"><g id="Icon"><path id="ZoomOut" d="M8.6,0a8.6,8.6,0,0,1,8.6,8.6,8.8,8.8,0,0,1-2,5.5h0l6.5,6.5a.8.8,0,0,1-1.1,1.1h0l-6.5-6.5a8.8,8.8,0,0,1-5.5,2A8.6,8.6,0,0,1,8.6,0Zm0,1.6a7.1,7.1,0,1,0,7.1,7.1A7.1,7.1,0,0,0,8.6,1.6Zm4,6.3V9.5H4.7V7.9Z" fill="#f4f4f4" fill-rule="evenodd"/></g></g></g></g></g></g></g></svg>
